<svg width="150" height="100" viewBox="0 0 150 100" fill="none" xmlns="http://www.w3.org/2000/svg">
<path d="M42.1335 100H22.7058V35.5312C18.0385 39.8645 12.757 43.2346 6.94594 45.5809L3.79883 46.8514V24.4346C4.86086 23.8715 9.27509 23.0754 17.1706 15.5535C24.6562 8.42266 25.6895 1.15293 26.1752 0H42.1335V100ZM27.4976 94.1406H37.3416V5.85938H29.4899C27.5754 11.259 24.4283 16.0674 20.1156 20.1758C16.0643 24.0352 12.196 26.8656 8.59082 28.6115V38.6092C14.192 35.8506 19.184 31.9877 23.4655 27.093L27.4976 22.4834V94.1406Z" fill="#F3F3F3"/>
<path d="M81.2762 47.3321V53.9201H61.0802V48.7001L70.1882 40.2761C70.9802 39.5321 71.5082 38.8961 71.7722 38.3681C72.0362 37.8401 72.1682 37.3241 72.1682 36.8201C72.1682 36.1961 71.9522 35.7161 71.5202 35.3801C71.1122 35.0201 70.5122 34.8401 69.7202 34.8401C68.9522 34.8401 68.2322 35.0441 67.5602 35.4521C66.8882 35.8601 66.3722 36.4361 66.0122 37.1801L59.6042 33.9761C60.5642 32.1761 61.9682 30.7601 63.8162 29.7281C65.6642 28.6721 67.8962 28.1441 70.5122 28.1441C72.5042 28.1441 74.2682 28.4681 75.8042 29.1161C77.3402 29.7641 78.5402 30.6881 79.4042 31.8881C80.2682 33.0881 80.7002 34.4681 80.7002 36.0281C80.7002 37.4201 80.4002 38.7281 79.8002 39.9521C79.2242 41.1521 78.0842 42.5201 76.3802 44.0561L72.7802 47.3321H81.2762Z" fill="#FBFBFB"/>
<path d="M80.6561 99.8184L74.8481 90.8424L69.1841 99.8184H56.2721L68.4161 82.8744L56.7041 66.2184H69.4241L75.1361 74.6664L80.7041 66.2184H92.8961L81.2321 82.4424L93.6161 99.8184H80.6561ZM130.405 66.2184L116.197 99.8184H105.061L90.8535 66.2184H103.045L111.061 85.8504L119.269 66.2184H130.405ZM131.533 66.2184H142.861V99.8184H131.533V66.2184Z" fill="#FBFBFB"/>
<path d="M133.173 42.274H127.221V49.954H112.565V42.274H89.3329V32.674L108.341 5.15398H123.829L106.933 30.562H113.013V23.714H127.221V30.562H133.173V42.274Z" fill="#FBFBFB"/>
</svg>
