<svg width="150" height="100" viewBox="0 0 150 100" fill="none" xmlns="http://www.w3.org/2000/svg">
<path d="M87.6904 8.07387C85.1297 5.38952 80.9781 5.38952 78.4178 8.07387L69.2288 17.7068C62.3634 12.4759 53.9228 9.38529 44.8053 9.38529C21.8482 9.38529 3.17124 28.9645 3.17124 53.0305C3.17124 62.5885 6.11939 71.4368 11.1092 78.6338L1.92025 88.2667C-0.640083 90.951 -0.640083 95.3032 1.92025 97.9872C3.20041 99.3292 4.87856 100 6.55671 100C8.23486 100 9.91268 99.3292 11.1932 97.9872L20.3822 88.3543C27.2475 93.5852 35.6881 96.6758 44.8056 96.6758C67.7627 96.6758 86.4397 77.0966 86.4397 53.0305C86.4397 43.4726 83.4915 34.6243 78.5017 27.4273L87.6907 17.7944C90.2503 15.1104 90.2504 10.7579 87.6904 8.07387ZM16.2843 53.0302C16.2843 36.544 29.0788 23.1315 44.8053 23.1315C50.298 23.1315 55.4325 24.7694 59.7896 27.6015L20.5484 68.7383C17.8468 64.1707 16.2843 58.7886 16.2843 53.0302ZM73.3263 53.0302C73.3263 69.5164 60.5318 82.9289 44.8053 82.9289C39.3122 82.9289 34.1781 81.291 29.821 78.4589L69.0622 37.322C71.7638 41.89 73.3263 47.2721 73.3263 53.0302Z" fill="#F4F4F4"/>
<g clip-path="url(#clip0)">
<path d="M129.368 41.0783H122.186V39.556C124.292 38.3142 126.087 36.635 127.441 34.6294C129.175 32.06 130.091 29.0788 130.091 26.0082C130.091 17.237 122.637 10.101 113.474 10.101C104.311 10.101 96.8563 17.237 96.8563 26.0083C96.8563 29.0789 97.7729 32.06 99.5069 34.6295C100.86 36.6351 102.656 38.3142 104.762 39.556V41.0783H97.579C96.0252 41.0783 94.7656 42.2841 94.7656 43.7715C94.7656 45.2589 96.0252 46.4646 97.579 46.4646H107.575C109.129 46.4646 110.388 45.2589 110.388 43.7715V37.9578C110.388 36.9166 109.762 35.9689 108.779 35.5235C104.954 33.7908 102.483 30.0559 102.483 26.0083C102.483 20.2071 107.413 15.4873 113.474 15.4873C119.534 15.4873 124.465 20.2071 124.465 26.0083C124.465 30.0557 121.993 33.7908 118.169 35.5235C117.186 35.969 116.559 36.9167 116.559 37.9578V43.7715C116.559 45.2589 117.819 46.4646 119.373 46.4646H129.368C130.922 46.4646 132.182 45.2589 132.182 43.7715C132.182 42.2841 130.922 41.0783 129.368 41.0783Z" fill="#F4F4F4"/>
</g>
<g clip-path="url(#clip1)">
<path d="M90.5176 54.5455H137.409V64.7823H129.094V61.9611H108.329L121.761 76.2626L108.329 90.5642H129.095V87.743H137.409V97.9798H90.5176L110.914 76.2626L90.5176 54.5455Z" fill="#F4F4F4"/>
</g>
<defs>
<clipPath id="clip0">
<rect width="37.987" height="36.3636" fill="white" transform="translate(94.4805 10.101)"/>
</clipPath>
<clipPath id="clip1">
<rect width="48.7013" height="43.4343" fill="white" transform="translate(89.6113 54.5455)"/>
</clipPath>
</defs>
</svg>
