<svg width="150" height="100" viewBox="0 0 150 100" fill="none" xmlns="http://www.w3.org/2000/svg">
<path d="M50.2667 3H22V97H128V71.9333H50.2667V3ZM25.5333 6.13333H46.7333V9.26667H37.9V12.4H46.7333V15.5333H41.4333V18.6667H46.7333V21.8H37.9V24.9333H46.7333V28.0667H41.4333V31.2H46.7333V34.3333H37.9V37.4667H46.7333V40.6H41.4333V43.7333H46.7333V46.8667H37.9V50H46.7333V53.1333H41.4333V56.2667H46.7333V59.4H37.9V62.5333H46.7333V65.6667H41.4333V68.8H46.7333V71.9333H25.5333V6.13333ZM124.467 75.0667V93.8667H120.933V86.0333H117.4V93.8667H113.867V89.1667H110.333V93.8667H106.8V86.0333H103.267V93.8667H99.7333V89.1667H96.2V93.8667H92.6667V86.0333H89.1333V93.8667H85.6V89.1667H82.0667V93.8667H78.5333V86.0333H75V93.8667H71.4667V89.1667H67.9333V93.8667H64.4V86.0333H60.8667V93.8667H57.3333V89.1667H53.8V93.8667H50.2667V86.0333H46.7333V93.8667H43.2V89.1667H39.6667V93.8667H36.1333V86.0333H32.6V93.8667H25.5333V75.0667H124.467Z" fill="white"/>
<path d="M128.06 21.5406C129.942 19.5038 131 16.7413 131 13.8608C131 10.9804 129.942 8.21786 128.06 6.18106C126.177 4.14426 123.624 3 120.962 3C118.299 3 115.746 4.14426 113.864 6.18106L75.9137 47.2407L70 69L90.1099 62.6002L128.06 21.5406ZM79.8098 58.3864C78.863 57.3649 77.7572 56.5319 76.5432 55.9258L78.0546 50.37L85.6675 52.0021L87.2119 60.2885L82.084 61.9207C81.5236 60.6072 80.7537 59.4109 79.8098 58.3864ZM109.81 23.7328L86.4576 49.0078L79.6879 47.5556L105.753 19.3468L109.81 23.7328ZM89.8117 58.5353L88.4508 51.231L111.839 25.9281L115.894 30.3172L89.8117 58.5353ZM115.891 8.37329C117.236 6.9179 119.06 6.10019 120.963 6.10005C121.905 6.09997 122.837 6.30062 123.707 6.69053C124.578 7.08044 125.368 7.65198 126.034 8.37251C126.7 9.09304 127.229 9.94846 127.589 10.8899C127.95 11.8314 128.135 12.8404 128.135 13.8595C128.136 14.8786 127.95 15.8877 127.59 16.8292C127.229 17.7707 126.701 18.6262 126.035 19.3468L122.991 22.6468L112.85 11.6671L115.891 8.37329ZM120.962 24.8297L117.92 28.1235L112.851 22.6375L107.781 17.153L110.822 13.8624L120.962 24.8297ZM75.7215 58.9511C77.2508 59.8069 78.4968 61.1551 79.2878 62.8096L74.2345 64.417L75.7215 58.9511Z" fill="white"/>
</svg>
