<svg width="150" height="100" viewBox="0 0 150 100" fill="none" xmlns="http://www.w3.org/2000/svg">
<path d="M37.229 14.2V59H22.125V25.592H14.445V14.2H37.229Z" fill="#EDEDED"/>
<path d="M47.5313 59.24C46.4113 59.24 45.3073 59.12 44.2193 58.88C43.1313 58.64 42.2513 58.328 41.5793 57.944L43.0673 54.368C43.6753 54.736 44.3953 55.024 45.2273 55.232C46.0593 55.44 46.8673 55.544 47.6513 55.544C48.2753 55.544 48.7073 55.496 48.9473 55.4C49.2033 55.288 49.3313 55.128 49.3313 54.92C49.3313 54.712 49.1713 54.568 48.8513 54.488C48.5473 54.408 48.0433 54.328 47.3393 54.248C46.2673 54.12 45.3553 53.96 44.6033 53.768C43.8513 53.56 43.1873 53.168 42.6113 52.592C42.0513 52.016 41.7713 51.192 41.7713 50.12C41.7713 49.272 42.0273 48.512 42.5393 47.84C43.0513 47.168 43.8113 46.632 44.8193 46.232C45.8433 45.832 47.0673 45.632 48.4913 45.632C49.4833 45.632 50.4513 45.728 51.3953 45.92C52.3553 46.096 53.1713 46.36 53.8433 46.712L52.3553 50.288C51.2033 49.648 49.9393 49.328 48.5633 49.328C47.3793 49.328 46.7873 49.536 46.7873 49.952C46.7873 50.16 46.9473 50.312 47.2673 50.408C47.5873 50.488 48.0913 50.568 48.7793 50.648C49.8513 50.776 50.7553 50.944 51.4913 51.152C52.2433 51.36 52.8993 51.752 53.4593 52.328C54.0353 52.904 54.3233 53.728 54.3233 54.8C54.3233 55.616 54.0673 56.36 53.5553 57.032C53.0433 57.704 52.2753 58.24 51.2513 58.64C50.2273 59.04 48.9873 59.24 47.5313 59.24ZM65.6376 58.544C64.8216 59.008 63.7096 59.24 62.3016 59.24C60.4616 59.24 59.0456 58.8 58.0536 57.92C57.0616 57.024 56.5656 55.688 56.5656 53.912V50.552H54.7656V46.592H56.5656V42.92H61.9896V46.592H64.6776V50.552H61.9896V53.864C61.9896 54.264 62.0936 54.576 62.3016 54.8C62.5096 55.024 62.7816 55.136 63.1176 55.136C63.5816 55.136 63.9896 55.016 64.3416 54.776L65.6376 58.544Z" fill="#EDEDED"/>
<path d="M13.2861 83.544C12.4701 84.008 11.3581 84.24 9.95006 84.24C8.11006 84.24 6.69406 83.8 5.70206 82.92C4.71006 82.024 4.21406 80.688 4.21406 78.912V75.552H2.41406V71.592H4.21406V67.92H9.63806V71.592H12.3261V75.552H9.63806V78.864C9.63806 79.264 9.74206 79.576 9.95006 79.8C10.1581 80.024 10.4301 80.136 10.7661 80.136C11.2301 80.136 11.6381 80.016 11.9901 79.776L13.2861 83.544ZM23.7731 70.632C25.3891 70.632 26.6851 71.12 27.6611 72.096C28.6531 73.072 29.1491 74.544 29.1491 76.512V84H23.7251V77.448C23.7251 75.944 23.1891 75.192 22.1171 75.192C21.5091 75.192 21.0131 75.408 20.6291 75.84C20.2611 76.256 20.0771 76.92 20.0771 77.832V84H14.6531V66.192H20.0771V71.928C21.0851 71.064 22.3171 70.632 23.7731 70.632ZM45.7071 77.424C45.7071 77.504 45.6831 77.928 45.6351 78.696H36.5151C36.7071 79.192 37.0271 79.576 37.4751 79.848C37.9231 80.104 38.4831 80.232 39.1551 80.232C39.7311 80.232 40.2111 80.16 40.5951 80.016C40.9951 79.872 41.4271 79.624 41.8911 79.272L44.7231 82.128C43.4431 83.536 41.5311 84.24 38.9871 84.24C37.4031 84.24 36.0111 83.952 34.8111 83.376C33.6111 82.784 32.6831 81.968 32.0271 80.928C31.3711 79.888 31.0431 78.72 31.0431 77.424C31.0431 76.112 31.3631 74.944 32.0031 73.92C32.6591 72.88 33.5471 72.072 34.6671 71.496C35.8031 70.92 37.0751 70.632 38.4831 70.632C39.8111 70.632 41.0191 70.896 42.1071 71.424C43.2111 71.952 44.0831 72.728 44.7231 73.752C45.3791 74.776 45.7071 76 45.7071 77.424ZM38.5311 74.328C37.9711 74.328 37.5071 74.48 37.1391 74.784C36.7711 75.088 36.5311 75.52 36.4191 76.08H40.6431C40.5311 75.536 40.2911 75.112 39.9231 74.808C39.5551 74.488 39.0911 74.328 38.5311 74.328ZM59.7501 84.24C58.6301 84.24 57.5261 84.12 56.4381 83.88C55.3501 83.64 54.4701 83.328 53.7981 82.944L55.2861 79.368C55.8941 79.736 56.6141 80.024 57.4461 80.232C58.2781 80.44 59.0861 80.544 59.8701 80.544C60.4941 80.544 60.9261 80.496 61.1661 80.4C61.4221 80.288 61.5501 80.128 61.5501 79.92C61.5501 79.712 61.3901 79.568 61.0701 79.488C60.7661 79.408 60.2621 79.328 59.5581 79.248C58.4861 79.12 57.5741 78.96 56.8221 78.768C56.0701 78.56 55.4061 78.168 54.8301 77.592C54.2701 77.016 53.9901 76.192 53.9901 75.12C53.9901 74.272 54.2461 73.512 54.7581 72.84C55.2701 72.168 56.0301 71.632 57.0381 71.232C58.0621 70.832 59.2861 70.632 60.7101 70.632C61.7021 70.632 62.6701 70.728 63.6141 70.92C64.5741 71.096 65.3901 71.36 66.0621 71.712L64.5741 75.288C63.4221 74.648 62.1581 74.328 60.7821 74.328C59.5981 74.328 59.0061 74.536 59.0061 74.952C59.0061 75.16 59.1661 75.312 59.4861 75.408C59.8061 75.488 60.3101 75.568 60.9981 75.648C62.0701 75.776 62.9741 75.944 63.7101 76.152C64.4621 76.36 65.1181 76.752 65.6781 77.328C66.2541 77.904 66.5421 78.728 66.5421 79.8C66.5421 80.616 66.2861 81.36 65.7741 82.032C65.2621 82.704 64.4941 83.24 63.4701 83.64C62.4461 84.04 61.2061 84.24 59.7501 84.24ZM82.1524 77.424C82.1524 77.504 82.1284 77.928 82.0804 78.696H72.9604C73.1524 79.192 73.4724 79.576 73.9204 79.848C74.3684 80.104 74.9284 80.232 75.6004 80.232C76.1764 80.232 76.6564 80.16 77.0404 80.016C77.4404 79.872 77.8724 79.624 78.3364 79.272L81.1684 82.128C79.8884 83.536 77.9764 84.24 75.4324 84.24C73.8484 84.24 72.4564 83.952 71.2564 83.376C70.0564 82.784 69.1284 81.968 68.4724 80.928C67.8164 79.888 67.4884 78.72 67.4884 77.424C67.4884 76.112 67.8084 74.944 68.4484 73.92C69.1044 72.88 69.9924 72.072 71.1124 71.496C72.2484 70.92 73.5204 70.632 74.9284 70.632C76.2564 70.632 77.4644 70.896 78.5524 71.424C79.6564 71.952 80.5284 72.728 81.1684 73.752C81.8244 74.776 82.1524 76 82.1524 77.424ZM74.9764 74.328C74.4164 74.328 73.9524 74.48 73.5844 74.784C73.2164 75.088 72.9764 75.52 72.8644 76.08H77.0884C76.9764 75.536 76.7364 75.112 76.3684 74.808C76.0004 74.488 75.5364 74.328 74.9764 74.328ZM90.9201 84.24C89.4321 84.24 88.0961 83.952 86.9121 83.376C85.7441 82.8 84.8241 81.992 84.1521 80.952C83.4961 79.912 83.1681 78.736 83.1681 77.424C83.1681 76.112 83.4961 74.944 84.1521 73.92C84.8241 72.88 85.7441 72.072 86.9121 71.496C88.0961 70.92 89.4321 70.632 90.9201 70.632C92.5201 70.632 93.8881 70.976 95.0241 71.664C96.1601 72.352 96.9441 73.304 97.3761 74.52L93.1761 76.584C92.6641 75.432 91.9041 74.856 90.8961 74.856C90.2561 74.856 89.7201 75.08 89.2881 75.528C88.8721 75.976 88.6641 76.608 88.6641 77.424C88.6641 78.256 88.8721 78.896 89.2881 79.344C89.7201 79.792 90.2561 80.016 90.8961 80.016C91.9041 80.016 92.6641 79.44 93.1761 78.288L97.3761 80.352C96.9441 81.568 96.1601 82.52 95.0241 83.208C93.8881 83.896 92.5201 84.24 90.9201 84.24ZM105.449 84.24C103.993 84.24 102.681 83.952 101.513 83.376C100.361 82.784 99.4565 81.976 98.8005 80.952C98.1445 79.912 97.8165 78.736 97.8165 77.424C97.8165 76.112 98.1445 74.944 98.8005 73.92C99.4565 72.88 100.361 72.072 101.513 71.496C102.681 70.92 103.993 70.632 105.449 70.632C106.921 70.632 108.233 70.92 109.385 71.496C110.553 72.072 111.457 72.88 112.097 73.92C112.753 74.944 113.081 76.112 113.081 77.424C113.081 78.736 112.753 79.912 112.097 80.952C111.457 81.976 110.553 82.784 109.385 83.376C108.233 83.952 106.921 84.24 105.449 84.24ZM105.449 80.016C106.073 80.016 106.585 79.792 106.985 79.344C107.385 78.88 107.585 78.24 107.585 77.424C107.585 76.608 107.385 75.976 106.985 75.528C106.585 75.08 106.073 74.856 105.449 74.856C104.825 74.856 104.313 75.08 103.913 75.528C103.513 75.976 103.312 76.608 103.312 77.424C103.312 78.24 103.513 78.88 103.913 79.344C104.313 79.792 104.825 80.016 105.449 80.016ZM123.898 70.632C125.514 70.632 126.81 71.12 127.786 72.096C128.778 73.072 129.274 74.544 129.274 76.512V84H123.85V77.448C123.85 75.944 123.314 75.192 122.242 75.192C121.634 75.192 121.138 75.408 120.754 75.84C120.386 76.256 120.202 76.92 120.202 77.832V84H114.778V70.872H119.938V72.168C120.45 71.656 121.042 71.272 121.714 71.016C122.386 70.76 123.114 70.632 123.898 70.632ZM146.384 66.192V84H141.224V82.92C140.44 83.8 139.24 84.24 137.624 84.24C136.472 84.24 135.408 83.968 134.432 83.424C133.472 82.864 132.704 82.064 132.128 81.024C131.568 79.984 131.288 78.784 131.288 77.424C131.288 76.064 131.568 74.872 132.128 73.848C132.704 72.808 133.472 72.016 134.432 71.472C135.408 70.912 136.472 70.632 137.624 70.632C139.08 70.632 140.192 71.008 140.96 71.76V66.192H146.384ZM138.92 80.016C139.544 80.016 140.056 79.792 140.456 79.344C140.856 78.88 141.056 78.24 141.056 77.424C141.056 76.608 140.856 75.976 140.456 75.528C140.056 75.08 139.544 74.856 138.92 74.856C138.296 74.856 137.784 75.08 137.384 75.528C136.984 75.976 136.784 76.608 136.784 77.424C136.784 78.24 136.984 78.88 137.384 79.344C137.784 79.792 138.296 80.016 138.92 80.016Z" fill="#F3F3F3"/>
<path d="M115.852 30.928C119.308 31.7813 121.953 33.3387 123.788 35.6C125.665 37.8187 126.604 40.5067 126.604 43.664C126.604 46.352 125.857 48.8693 124.364 51.216C122.913 53.52 120.652 55.3973 117.58 56.848C114.508 58.2987 110.689 59.024 106.124 59.024C102.966 59.024 99.8091 58.6827 96.6518 58C93.5371 57.3173 90.8064 56.3147 88.4597 54.992L93.5798 43.856C95.4144 44.9227 97.3771 45.7333 99.4678 46.288C101.601 46.8427 103.649 47.12 105.612 47.12C107.361 47.12 108.769 46.8213 109.836 46.224C110.902 45.6267 111.436 44.7733 111.436 43.664C111.436 41.616 109.665 40.592 106.124 40.592H100.172V31.312L106.764 24.592H90.7638V13.2H124.172V22.48L115.852 30.928Z" fill="#F7F7F7"/>
<path d="M129.503 58.24C128.591 58.24 127.831 57.952 127.223 57.376C126.631 56.784 126.335 56.032 126.335 55.12C126.335 54.208 126.631 53.472 127.223 52.912C127.831 52.336 128.591 52.048 129.503 52.048C130.415 52.048 131.167 52.336 131.759 52.912C132.367 53.472 132.671 54.208 132.671 55.12C132.671 56.032 132.367 56.784 131.759 57.376C131.167 57.952 130.415 58.24 129.503 58.24Z" fill="#F7F7F7"/>
</svg>
