<svg width="150" height="100" viewBox="0 0 150 100" fill="none" xmlns="http://www.w3.org/2000/svg">
<path d="M114.61 33.2288H93.2917C89.206 33.2288 85.8252 30.8645 85.1892 27.7708C90.5991 25.1274 94.2136 20.3918 94.2136 14.9987C94.2132 6.7284 85.7173 0 75.2739 0C64.83 0 56.3333 6.7284 56.3333 14.9987C56.3333 20.3918 59.9478 25.1274 65.3581 27.7708C64.7225 30.8645 61.3422 33.2288 57.256 33.2288H35.9372L25.2734 100H125.273L114.61 33.2288ZM75.2739 7.968C80.169 7.968 84.1511 11.122 84.1511 14.9984C84.1511 18.8748 80.1686 22.0284 75.2739 22.0284C70.3787 22.0284 66.3958 18.8748 66.3958 14.9984C66.3954 11.122 70.3783 7.968 75.2739 7.968ZM71.5477 74.6488L63.1944 64.786L60.7861 66.991V74.6488H57.5123V54.5656H60.7861V64.2496H60.899C61.5763 63.4749 62.2536 62.7597 62.8933 62.1041L70.645 54.5656H74.709L65.5274 63.0875L75.4235 74.6488H71.5477ZM93.147 64.19V72.5629C93.147 75.8705 92.3192 77.8965 90.5506 79.148C88.7824 80.4591 86.2232 80.8763 83.9282 80.8763C81.7457 80.8763 79.3378 80.4591 77.8703 79.6843L78.6981 77.6879C79.9023 78.2838 81.7838 78.8202 84.0411 78.8202C87.4278 78.8202 89.9113 77.4197 89.9113 73.7843V72.1752H89.8361C88.8201 73.5161 86.8637 74.5889 84.0415 74.5889C79.5264 74.5889 76.2903 71.5498 76.2903 67.5569C76.2903 62.67 80.3162 59.8991 84.4931 59.8991C87.654 59.8991 89.3849 61.2102 90.1747 62.4021H90.25L90.4005 60.2269H93.298C93.2223 61.2701 93.147 62.4319 93.147 64.19Z" fill="#EAEAEA"/>
<path d="M85.0573 61.9555C81.8964 61.9555 79.6387 64.0712 79.6387 67.4082C79.6387 70.239 81.4449 72.5927 85.0193 72.5927C87.0513 72.5927 88.8951 71.5796 89.6097 69.9109C89.7978 69.4639 89.8731 68.9574 89.8731 68.5107V65.9183C89.8731 65.4713 89.8354 65.084 89.6849 64.7264C89.0833 63.2067 87.4656 61.9555 85.0573 61.9555Z" fill="#EAEAEA"/>
</svg>
