<svg width="152" height="101" viewBox="0 0 152 101" fill="none" xmlns="http://www.w3.org/2000/svg">
<path d="M52.8379 62.4623C62.9838 43.2493 73.8061 18.1889 96.127 62.4623C117.768 105.386 129.947 86.6871 140.769 62.4623" stroke="white" stroke-width="3"/>
<path d="M32.8555 1.32549C32.465 0.934962 31.8319 0.934962 31.4413 1.32549L25.0774 7.68945C24.6868 8.07997 24.6868 8.71314 25.0774 9.10366C25.4679 9.49419 26.1011 9.49419 26.4916 9.10366L32.1484 3.44681L37.8053 9.10366C38.1958 9.49418 38.829 9.49418 39.2195 9.10366C39.61 8.71314 39.61 8.07997 39.2195 7.68945L32.8555 1.32549ZM33.1484 100.033L33.1484 2.03259L31.1484 2.03259L31.1484 100.033L33.1484 100.033Z" fill="white"/>
<path d="M150.787 63.6586C151.178 63.2681 151.178 62.635 150.787 62.2444L144.423 55.8805C144.033 55.4899 143.4 55.4899 143.009 55.8805C142.618 56.271 142.618 56.9042 143.009 57.2947L148.666 62.9515L143.009 68.6084C142.618 68.9989 142.618 69.6321 143.009 70.0226C143.4 70.4131 144.033 70.4131 144.423 70.0226L150.787 63.6586ZM0.0800781 63.9515H150.08V61.9515H0.0800781V63.9515Z" fill="white"/>
<path d="M51.3383 62.9516C51.3383 77.1173 42.423 87.9381 32.1486 87.9381C21.8743 87.9381 12.959 77.1173 12.959 62.9516C12.959 48.7859 21.8743 37.9651 32.1486 37.9651C42.423 37.9651 51.3383 48.7859 51.3383 62.9516Z" stroke="white" stroke-width="3"/>
<line x1="30.0801" y1="37.2894" x2="145.942" y2="37.2894" stroke="white" stroke-dasharray="10 2"/>
<line x1="30.0801" y1="88.938" x2="145.942" y2="88.938" stroke="white" stroke-dasharray="10 2"/>
<line x1="73.0293" y1="62.9515" x2="73.0293" y2="36.4651" stroke="white"/>
<line x1="119.547" y1="62.9515" x2="119.547" y2="89.438" stroke="white"/>
<path d="M79.8783 81.9701V82.5461H75.4593V82.0871L78.0783 79.5221C78.4083 79.1981 78.6303 78.9191 78.7443 78.6851C78.8643 78.4451 78.9243 78.2051 78.9243 77.9651C78.9243 77.5931 78.7953 77.3051 78.5373 77.1011C78.2853 76.8911 77.9223 76.7861 77.4483 76.7861C76.7103 76.7861 76.1373 77.0201 75.7293 77.4881L75.2703 77.0921C75.5163 76.8041 75.8283 76.5821 76.2063 76.4261C76.5903 76.2701 77.0223 76.1921 77.5023 76.1921C78.1443 76.1921 78.6513 76.3451 79.0233 76.6511C79.4013 76.9511 79.5903 77.3651 79.5903 77.8931C79.5903 78.2171 79.5183 78.5291 79.3743 78.8291C79.2303 79.1291 78.9573 79.4741 78.5553 79.8641L76.4133 81.9701H79.8783Z" fill="white"/>
<path d="M72.4941 73.5461H82.3217" stroke="white" stroke-width="0.5"/>
<path d="M81.1888 66.9672H79.6088V71.6272H78.8988V66.9672H77.0988L76.5588 71.6272H75.8488L76.3888 66.9672H75.8188C75.4255 66.9672 75.1322 67.0539 74.9388 67.2272C74.7455 67.4005 74.6488 67.6505 74.6488 67.9772C74.6488 68.2439 74.7488 68.5205 74.9488 68.8072L74.3988 68.9972C74.2722 68.8439 74.1722 68.6672 74.0988 68.4672C74.0322 68.2605 73.9988 68.0605 73.9988 67.8672C73.9988 67.4272 74.1522 67.0672 74.4588 66.7872C74.7722 66.5072 75.1988 66.3672 75.7388 66.3672H81.1988L81.1888 66.9672Z" fill="white"/>
<path d="M126.431 58.1324V58.7084H122.012V58.2494L124.631 55.6844C124.961 55.3604 125.183 55.0814 125.297 54.8474C125.417 54.6074 125.477 54.3674 125.477 54.1274C125.477 53.7554 125.348 53.4674 125.09 53.2634C124.838 53.0534 124.475 52.9484 124.001 52.9484C123.263 52.9484 122.69 53.1824 122.282 53.6504L121.823 53.2544C122.069 52.9664 122.381 52.7444 122.759 52.5884C123.143 52.4324 123.575 52.3544 124.055 52.3544C124.697 52.3544 125.204 52.5074 125.576 52.8134C125.954 53.1134 126.143 53.5274 126.143 54.0554C126.143 54.3794 126.071 54.6914 125.927 54.9914C125.783 55.2914 125.51 55.6364 125.108 56.0264L122.966 58.1324H126.431Z" fill="white"/>
<path d="M119.047 49.7084H128.874" stroke="white" stroke-width="0.5"/>
<path d="M127.742 43.1294H126.162V47.7894H125.452V43.1294H123.652L123.112 47.7894H122.402L122.942 43.1294H122.372C121.978 43.1294 121.685 43.2161 121.492 43.3894C121.298 43.5628 121.202 43.8128 121.202 44.1394C121.202 44.4061 121.302 44.6828 121.502 44.9694L120.952 45.1594C120.825 45.0061 120.725 44.8294 120.652 44.6294C120.585 44.4228 120.552 44.2228 120.552 44.0294C120.552 43.5894 120.705 43.2294 121.012 42.9494C121.325 42.6694 121.752 42.5294 122.292 42.5294H127.752L127.742 43.1294Z" fill="white"/>
<path d="M114.978 49.5137C115.638 49.5497 116.139 49.7297 116.481 50.0537C116.829 50.3717 117.003 50.7887 117.003 51.3047C117.003 51.6647 116.916 51.9857 116.742 52.2677C116.568 52.5437 116.31 52.7627 115.968 52.9247C115.626 53.0867 115.209 53.1677 114.717 53.1677C114.261 53.1677 113.829 53.0957 113.421 52.9517C113.019 52.8017 112.695 52.6037 112.449 52.3577L112.764 51.8447C112.974 52.0607 113.253 52.2377 113.601 52.3757C113.949 52.5077 114.321 52.5737 114.717 52.5737C115.233 52.5737 115.632 52.4627 115.914 52.2407C116.196 52.0127 116.337 51.7007 116.337 51.3047C116.337 50.9147 116.196 50.6087 115.914 50.3867C115.632 50.1647 115.206 50.0537 114.636 50.0537H114.186V49.5767L115.932 47.3897H112.71V46.8137H116.76V47.2727L114.978 49.5137Z" fill="white"/>
<path d="M102.911 53.724H101.331V58.384H100.621V53.724H98.8215L98.2815 58.384H97.5715L98.1115 53.724H97.5415C97.1482 53.724 96.8548 53.8107 96.6615 53.984C96.4682 54.1574 96.3715 54.4074 96.3715 54.734C96.3715 55.0007 96.4715 55.2774 96.6715 55.564L96.1215 55.754C95.9948 55.6007 95.8948 55.424 95.8215 55.224C95.7548 55.0174 95.7215 54.8174 95.7215 54.624C95.7215 54.184 95.8748 53.824 96.1815 53.544C96.4948 53.264 96.9215 53.124 97.4615 53.124H102.921L102.911 53.724Z" fill="white"/>
<path d="M15.2616 56.1542V59.6542H14.9016V56.4742H14.0766V56.1542H15.2616ZM18.1033 57.8192C18.3233 57.8925 18.4916 58.0025 18.6083 58.1492C18.7283 58.2958 18.7883 58.4725 18.7883 58.6792C18.7883 58.8825 18.7333 59.0608 18.6233 59.2142C18.5133 59.3642 18.3549 59.4808 18.1483 59.5642C17.9449 59.6442 17.7049 59.6842 17.4283 59.6842C17.0083 59.6842 16.6783 59.5942 16.4383 59.4142C16.1983 59.2342 16.0783 58.9892 16.0783 58.6792C16.0783 58.4692 16.1349 58.2925 16.2483 58.1492C16.3649 58.0025 16.5333 57.8925 16.7533 57.8192C16.5733 57.7492 16.4366 57.6492 16.3433 57.5192C16.2499 57.3858 16.2033 57.2292 16.2033 57.0492C16.2033 56.7658 16.3133 56.5408 16.5333 56.3742C16.7566 56.2075 17.0549 56.1242 17.4283 56.1242C17.6749 56.1242 17.8899 56.1625 18.0733 56.2392C18.2599 56.3125 18.4049 56.4192 18.5083 56.5592C18.6116 56.6992 18.6633 56.8625 18.6633 57.0492C18.6633 57.2292 18.6149 57.3858 18.5183 57.5192C18.4216 57.6492 18.2833 57.7492 18.1033 57.8192ZM16.5633 57.0592C16.5633 57.2525 16.6399 57.4058 16.7933 57.5192C16.9466 57.6325 17.1583 57.6892 17.4283 57.6892C17.6983 57.6892 17.9099 57.6325 18.0633 57.5192C18.2199 57.4058 18.2983 57.2542 18.2983 57.0642C18.2983 56.8675 18.2183 56.7125 18.0583 56.5992C17.9016 56.4858 17.6916 56.4292 17.4283 56.4292C17.1616 56.4292 16.9499 56.4858 16.7933 56.5992C16.6399 56.7125 16.5633 56.8658 16.5633 57.0592ZM17.4283 59.3792C17.7383 59.3792 17.9799 59.3158 18.1533 59.1892C18.3299 59.0625 18.4183 58.8908 18.4183 58.6742C18.4183 58.4575 18.3299 58.2875 18.1533 58.1642C17.9799 58.0375 17.7383 57.9742 17.4283 57.9742C17.1216 57.9742 16.8799 58.0375 16.7033 58.1642C16.5299 58.2875 16.4433 58.4575 16.4433 58.6742C16.4433 58.8942 16.5299 59.0675 16.7033 59.1942C16.8766 59.3175 17.1183 59.3792 17.4283 59.3792ZM20.6818 59.6842C20.4118 59.6842 20.1701 59.6125 19.9568 59.4692C19.7468 59.3258 19.5818 59.1208 19.4618 58.8542C19.3451 58.5842 19.2868 58.2675 19.2868 57.9042C19.2868 57.5408 19.3451 57.2258 19.4618 56.9592C19.5818 56.6892 19.7468 56.4825 19.9568 56.3392C20.1701 56.1958 20.4118 56.1242 20.6818 56.1242C20.9518 56.1242 21.1918 56.1958 21.4018 56.3392C21.6151 56.4825 21.7818 56.6892 21.9018 56.9592C22.0218 57.2258 22.0818 57.5408 22.0818 57.9042C22.0818 58.2675 22.0218 58.5842 21.9018 58.8542C21.7818 59.1208 21.6151 59.3258 21.4018 59.4692C21.1918 59.6125 20.9518 59.6842 20.6818 59.6842ZM20.6818 59.3542C20.8851 59.3542 21.0634 59.2975 21.2168 59.1842C21.3734 59.0708 21.4951 58.9058 21.5818 58.6892C21.6684 58.4725 21.7118 58.2108 21.7118 57.9042C21.7118 57.5975 21.6684 57.3358 21.5818 57.1192C21.4951 56.9025 21.3734 56.7375 21.2168 56.6242C21.0634 56.5108 20.8851 56.4542 20.6818 56.4542C20.4784 56.4542 20.2984 56.5108 20.1418 56.6242C19.9884 56.7375 19.8684 56.9025 19.7818 57.1192C19.6951 57.3358 19.6518 57.5975 19.6518 57.9042C19.6518 58.2108 19.6951 58.4725 19.7818 58.6892C19.8684 58.9058 19.9884 59.0708 20.1418 59.1842C20.2984 59.2975 20.4784 59.3542 20.6818 59.3542Z" fill="white"/>
<path d="M36.0088 29.6378C36.4721 29.6378 36.8271 29.7911 37.0738 30.0978C37.3204 30.4011 37.4438 30.8311 37.4438 31.3878C37.4438 31.7778 37.3771 32.1078 37.2438 32.3778C37.1104 32.6478 36.9238 32.8528 36.6838 32.9928C36.4438 33.1295 36.1638 33.1978 35.8438 33.1978C35.4971 33.1978 35.2204 33.1345 35.0138 33.0078L35.1588 32.7178C35.3254 32.8278 35.5521 32.8828 35.8388 32.8828C36.2254 32.8828 36.5288 32.7611 36.7488 32.5178C36.9688 32.2711 37.0788 31.9145 37.0788 31.4478C37.0788 31.3611 37.0738 31.2661 37.0638 31.1628C36.9771 31.3528 36.8388 31.5011 36.6488 31.6078C36.4588 31.7111 36.2404 31.7628 35.9938 31.7628C35.7638 31.7628 35.5588 31.7195 35.3788 31.6328C35.2021 31.5461 35.0638 31.4245 34.9638 31.2678C34.8638 31.1078 34.8138 30.9228 34.8138 30.7128C34.8138 30.4995 34.8654 30.3111 34.9688 30.1478C35.0721 29.9845 35.2138 29.8595 35.3938 29.7728C35.5771 29.6828 35.7821 29.6378 36.0088 29.6378ZM36.0488 31.4578C36.2254 31.4578 36.3804 31.4245 36.5138 31.3578C36.6504 31.2911 36.7571 31.1995 36.8338 31.0828C36.9104 30.9661 36.9488 30.8361 36.9488 30.6928C36.9488 30.5595 36.9121 30.4361 36.8388 30.3228C36.7688 30.2095 36.6638 30.1178 36.5238 30.0478C36.3838 29.9778 36.2171 29.9428 36.0238 29.9428C35.7704 29.9428 35.5638 30.0128 35.4038 30.1528C35.2471 30.2895 35.1688 30.4728 35.1688 30.7028C35.1688 30.9328 35.2471 31.1161 35.4038 31.2528C35.5638 31.3895 35.7788 31.4578 36.0488 31.4578ZM39.3607 33.1978C39.0907 33.1978 38.849 33.1261 38.6357 32.9828C38.4257 32.8395 38.2607 32.6345 38.1407 32.3678C38.024 32.0978 37.9657 31.7811 37.9657 31.4178C37.9657 31.0545 38.024 30.7395 38.1407 30.4728C38.2607 30.2028 38.4257 29.9961 38.6357 29.8528C38.849 29.7095 39.0907 29.6378 39.3607 29.6378C39.6307 29.6378 39.8707 29.7095 40.0807 29.8528C40.294 29.9961 40.4607 30.2028 40.5807 30.4728C40.7007 30.7395 40.7607 31.0545 40.7607 31.4178C40.7607 31.7811 40.7007 32.0978 40.5807 32.3678C40.4607 32.6345 40.294 32.8395 40.0807 32.9828C39.8707 33.1261 39.6307 33.1978 39.3607 33.1978ZM39.3607 32.8678C39.564 32.8678 39.7423 32.8111 39.8957 32.6978C40.0523 32.5845 40.174 32.4195 40.2607 32.2028C40.3473 31.9861 40.3907 31.7245 40.3907 31.4178C40.3907 31.1111 40.3473 30.8495 40.2607 30.6328C40.174 30.4161 40.0523 30.2511 39.8957 30.1378C39.7423 30.0245 39.564 29.9678 39.3607 29.9678C39.1573 29.9678 38.9773 30.0245 38.8207 30.1378C38.6673 30.2511 38.5473 30.4161 38.4607 30.6328C38.374 30.8495 38.3307 31.1111 38.3307 31.4178C38.3307 31.7245 38.374 31.9861 38.4607 32.2028C38.5473 32.4195 38.6673 32.5845 38.8207 32.6978C38.9773 32.8111 39.1573 32.8678 39.3607 32.8678Z" fill="white"/>
<path d="M55.9417 70.2788C55.6717 70.2788 55.4301 70.2071 55.2167 70.0638C55.0067 69.9204 54.8417 69.7154 54.7217 69.4488C54.6051 69.1788 54.5467 68.8621 54.5467 68.4988C54.5467 68.1354 54.6051 67.8204 54.7217 67.5538C54.8417 67.2838 55.0067 67.0771 55.2167 66.9338C55.4301 66.7904 55.6717 66.7188 55.9417 66.7188C56.2117 66.7188 56.4517 66.7904 56.6617 66.9338C56.8751 67.0771 57.0417 67.2838 57.1617 67.5538C57.2817 67.8204 57.3417 68.1354 57.3417 68.4988C57.3417 68.8621 57.2817 69.1788 57.1617 69.4488C57.0417 69.7154 56.8751 69.9204 56.6617 70.0638C56.4517 70.2071 56.2117 70.2788 55.9417 70.2788ZM55.9417 69.9488C56.1451 69.9488 56.3234 69.8921 56.4767 69.7788C56.6334 69.6654 56.7551 69.5004 56.8417 69.2838C56.9284 69.0671 56.9717 68.8054 56.9717 68.4988C56.9717 68.1921 56.9284 67.9304 56.8417 67.7138C56.7551 67.4971 56.6334 67.3321 56.4767 67.2188C56.3234 67.1054 56.1451 67.0488 55.9417 67.0488C55.7384 67.0488 55.5584 67.1054 55.4017 67.2188C55.2484 67.3321 55.1284 67.4971 55.0417 67.7138C54.9551 67.9304 54.9117 68.1921 54.9117 68.4988C54.9117 68.8054 54.9551 69.0671 55.0417 69.2838C55.1284 69.5004 55.2484 69.6654 55.4017 69.7788C55.5584 69.8921 55.7384 69.9488 55.9417 69.9488Z" fill="white"/>
<path d="M23.7487 53.6813C23.7487 54.3741 23.3145 54.8806 22.8392 54.8806C22.3639 54.8806 21.9297 54.3741 21.9297 53.6813C21.9297 52.9884 22.3639 52.4819 22.8392 52.4819C23.3145 52.4819 23.7487 52.9884 23.7487 53.6813Z" stroke="white" stroke-width="0.25"/>
<path d="M42.3678 28.5191C42.3678 29.212 41.9336 29.7185 41.4583 29.7185C40.983 29.7185 40.5488 29.212 40.5488 28.5191C40.5488 27.8263 40.983 27.3198 41.4583 27.3198C41.9336 27.3198 42.3678 27.8263 42.3678 28.5191Z" stroke="white" stroke-width="0.25"/>
<path d="M58.9205 65.6001C58.9205 66.293 58.4864 66.7995 58.011 66.7995C57.5357 66.7995 57.1016 66.293 57.1016 65.6001C57.1016 64.9073 57.5357 64.4008 58.011 64.4008C58.4864 64.4008 58.9205 64.9073 58.9205 65.6001Z" stroke="white" stroke-width="0.25"/>
</svg>
