<svg width="60" height="40" viewBox="0 0 60 40" fill="none" xmlns="http://www.w3.org/2000/svg">
<g clip-path="url(#clip0)">
<path d="M41.7214 1.25H33.5162L19.4531 8.28125H27.6582L41.7214 1.25Z" fill="#F1F1F1"/>
<path d="M55.9007 1.25H47.5787L33.5156 8.28125H41.7207L55.9007 1.25Z" fill="#F1F1F1"/>
<path d="M47.5781 8.28124H60.0011V2.42186C60.0011 2.33147 59.953 2.25163 59.9241 2.1671L47.5781 8.28124Z" fill="#F1F1F1"/>
<path d="M5.27344 8.28125H13.5957L27.6589 1.25H19.4537L5.27344 8.28125Z" fill="#F1F1F1"/>
<path d="M0 37.5781C0 38.2259 0.786211 38.75 1.75781 38.75H58.2422C59.2138 38.75 60 38.2259 60 37.5781V10.625H0V37.5781ZM21.2109 16.4844C21.2109 16.0621 21.5508 15.673 22.1019 15.4647C22.653 15.2564 23.3293 15.2621 23.8734 15.4795L41.4516 22.5108C41.9803 22.7225 42.3047 23.1036 42.3047 23.5155C42.3047 23.9275 41.9802 24.3086 41.4516 24.5203L23.8734 31.5516C23.329 31.7689 22.6525 31.7745 22.1019 31.5664C21.5508 31.3583 21.2109 30.9691 21.2109 30.5469V16.4844Z" fill="#F1F1F1"/>
<path d="M1.75781 1.25C0.786211 1.25 0 1.77414 0 2.42188V7.98883L13.5956 1.25H1.75781Z" fill="#F1F1F1"/>
<path d="M24.7266 18.5546V28.4766L37.1309 23.5156L24.7266 18.5546Z" fill="#F1F1F1"/>
</g>
<defs>
<clipPath id="clip0">
<rect width="60" height="40" fill="white"/>
</clipPath>
</defs>
</svg>
