<svg width="90" height="60" viewBox="0 0 90 60" fill="none" xmlns="http://www.w3.org/2000/svg">
<g clip-path="url(#clip0)">
<path d="M62.5822 1.875H50.2743L29.1797 12.4219H41.4874L62.5822 1.875Z" fill="#F1F1F1"/>
<path d="M83.851 1.875H71.3681L50.2734 12.4219H62.5811L83.851 1.875Z" fill="#F1F1F1"/>
<path d="M71.3672 12.4219H90.0016V3.6328C90.0016 3.49722 89.9295 3.37745 89.8861 3.25066L71.3672 12.4219Z" fill="#F1F1F1"/>
<path d="M7.91016 12.4219H20.3936L41.4884 1.875H29.1806L7.91016 12.4219Z" fill="#F1F1F1"/>
<path d="M0 56.3672C0 57.3388 1.17932 58.125 2.63672 58.125H87.3633C88.8207 58.125 90 57.3388 90 56.3672V15.9375H0V56.3672ZM31.8164 24.7266C31.8164 24.0932 32.3262 23.5095 33.1529 23.197C33.9796 22.8846 34.994 22.8932 35.8102 23.2193L62.1773 33.7662C62.9705 34.0838 63.457 34.6554 63.457 35.2733C63.457 35.8912 62.9703 36.4629 62.1773 36.7805L35.8102 47.3273C34.9935 47.6534 33.9787 47.6618 33.1529 47.3496C32.3262 47.0374 31.8164 46.4537 31.8164 45.8203V24.7266Z" fill="#F1F1F1"/>
<path d="M2.63672 1.875C1.17932 1.875 0 2.66121 0 3.63281V11.9832L20.3934 1.875H2.63672Z" fill="#F1F1F1"/>
<path d="M37.0898 27.8319V42.715L55.6963 35.2734L37.0898 27.8319Z" fill="#F1F1F1"/>
</g>
<defs>
<clipPath id="clip0">
<rect width="90" height="60" fill="white"/>
</clipPath>
</defs>
</svg>
