<svg width="150" height="100" viewBox="0 0 150 100" fill="none" xmlns="http://www.w3.org/2000/svg">
<path d="M39.0303 36.8964L1.37695 20.2677L39.0317 6.19861L76.6851 20.2677L39.0303 36.8964Z" fill="white"/>
<path d="M0 22.6901L37.5914 39.29V88.5302L0 69.3773V22.6901Z" fill="white"/>
<path d="M78.0601 69.3773L40.4688 88.5302V39.29L78.0601 22.6901V69.3773Z" fill="white"/>
<g clip-path="url(#clip0)">
<path d="M128.371 6.203C124.122 2.20298 118.474 0 112.466 0C106.458 0 100.809 2.20298 96.5606 6.203C92.3124 10.2032 89.9727 15.5216 89.9727 21.1786C89.9727 26.8355 92.3124 32.1539 96.5606 36.1541C100.809 40.1541 106.458 42.3571 112.466 42.3571C118.474 42.3571 124.122 40.1541 128.371 36.1541C132.619 32.1539 134.959 26.8355 134.959 21.1786C134.959 15.5216 132.619 10.2032 128.371 6.203ZM131.748 16.709C129.544 15.0067 127.122 13.6456 124.512 12.6469C122.132 11.7362 119.652 11.1419 117.125 10.8754C116.947 10.2618 116.635 9.69961 116.22 9.2183C117.177 7.82672 118.376 5.94844 119.57 3.71998C125.578 5.89459 130.187 10.7427 131.748 16.709ZM110.269 12.0784C110.269 10.938 111.254 10.0102 112.466 10.0102C113.677 10.0102 114.662 10.938 114.662 12.0784C114.662 13.2188 113.677 14.1466 112.466 14.1466C111.254 14.1466 110.269 13.2188 110.269 12.0784ZM117.014 2.97732C115.961 4.90532 114.917 6.54194 114.065 7.7856C113.564 7.61965 113.026 7.52832 112.466 7.52832C111.905 7.52832 111.367 7.61965 110.866 7.78568C110.014 6.54202 108.97 4.9054 107.918 2.97741C109.379 2.65377 110.901 2.48186 112.466 2.48186C114.03 2.48186 115.553 2.65377 117.014 2.97732ZM105.361 3.71998C106.556 5.94844 107.754 7.82672 108.711 9.2183C108.297 9.69961 107.985 10.2618 107.806 10.8754C105.279 11.1419 102.799 11.7362 100.419 12.6469C97.8094 13.6456 95.3874 15.0067 93.1835 16.709C94.7438 10.7427 99.3535 5.89459 105.361 3.71998ZM92.6085 21.1786C92.6085 20.9721 92.6134 20.7668 92.6205 20.5621C97.9742 15.3898 104.042 13.8216 107.834 13.3731C108.011 13.9365 108.302 14.4541 108.682 14.9033C105.739 19.1849 101.401 26.7699 100.078 35.7794C95.5282 32.3504 92.6085 27.0798 92.6085 21.1786ZM102.529 37.3606C103.533 28.3482 107.878 20.6618 110.822 16.3571C111.336 16.5325 111.889 16.6285 112.466 16.6285C113.042 16.6285 113.596 16.5325 114.109 16.3572C117.053 20.6617 121.398 28.3482 122.403 37.3607C119.478 38.959 116.084 39.8753 112.466 39.8753C108.848 39.8753 105.453 38.9589 102.529 37.3606ZM124.853 35.7795C123.53 26.7699 119.192 19.1849 116.25 14.9034C116.629 14.4542 116.92 13.9365 117.098 13.3732C120.889 13.8217 126.957 15.3899 132.311 20.5621C132.318 20.767 132.323 20.9723 132.323 21.1786C132.323 27.0798 129.403 32.3504 124.853 35.7795Z" fill="#EEEEEE"/>
</g>
<g clip-path="url(#clip1)">
<path d="M119.754 45.6041L81.2891 77.2073L105.571 93.6534L136.163 88.7212L119.754 45.6041ZM110.303 71.2131L89.5203 74.6978L115.599 53.2707L110.303 71.2131ZM109.37 74.3764L104.925 89.4346L87.9859 77.9619L109.37 74.3764ZM112.932 75.1238L129.828 86.7414L108.487 90.1821L112.932 75.1238ZM113.865 71.9605L119.161 54.0181L130.287 83.2517L113.865 71.9605Z" fill="white"/>
</g>
<defs>
<clipPath id="clip0">
<rect width="44.9859" height="42.3571" fill="white" transform="translate(89.9727)"/>
</clipPath>
<clipPath id="clip1">
<rect width="61.8096" height="50.0988" fill="white" transform="matrix(0.978688 0.205352 -0.283088 0.959094 89.5078 39.2578)"/>
</clipPath>
</defs>
</svg>
