<svg width="150" height="100" viewBox="0 0 150 100" fill="none" xmlns="http://www.w3.org/2000/svg">
<path d="M82.2002 7.036C79.7998 4.32133 75.9082 4.32133 73.5081 7.036L64.8944 16.7776C58.4589 11.4877 50.5468 8.36222 42.0001 8.36222C20.4803 8.36222 2.97269 28.1625 2.97269 52.5002C2.97269 62.1661 5.73626 71.1143 10.4137 78.3925L1.80002 88.1342C-0.600008 90.8488 -0.600008 95.2501 1.80002 97.9644C3.00004 99.3216 4.57312 100 6.1462 100C7.71928 100 9.29206 99.3216 10.4924 97.9644L19.1061 88.2228C25.5416 93.5128 33.4537 96.6382 42.0004 96.6382C63.5202 96.6382 81.0278 76.838 81.0278 52.5002C81.0278 42.8343 78.2642 33.8861 73.5868 26.6079L82.2005 16.8663C84.5999 14.1519 84.5999 9.75031 82.2002 7.036ZM15.2648 52.4999C15.2648 35.8275 27.2582 22.2636 42.0001 22.2636C47.149 22.2636 51.9619 23.92 56.0463 26.7841L19.2619 68.3854C16.7294 63.7662 15.2648 58.3233 15.2648 52.4999ZM68.7354 52.4999C68.7354 69.1722 56.742 82.7361 42.0001 82.7361C36.8509 82.7361 32.0383 81.0797 27.9539 78.2156L64.7383 36.6144C67.2708 41.2339 68.7354 46.6768 68.7354 52.4999Z" fill="#F4F4F4"/>
<path d="M128.818 40.6675H121.445V39.1604C123.606 37.931 125.45 36.2687 126.839 34.2831C128.62 31.7394 129.561 28.788 129.561 25.7481C129.561 17.0646 121.907 10 112.5 10C103.093 10 95.4394 17.0646 95.4394 25.7482C95.4394 28.7881 96.3804 31.7394 98.1607 34.2832C99.5501 36.2688 101.394 37.931 103.556 39.1604V40.6675H96.1814C94.5861 40.6675 93.293 41.8612 93.293 43.3338C93.293 44.8063 94.5861 46 96.1814 46H106.444C108.039 46 109.332 44.8063 109.332 43.3338V37.5782C109.332 36.5474 108.689 35.6092 107.68 35.1683C103.753 33.4528 101.216 29.7553 101.216 25.7482C101.216 20.005 106.278 15.3325 112.5 15.3325C118.722 15.3325 123.784 20.005 123.784 25.7482C123.784 29.7552 121.247 33.4528 117.32 35.1683C116.311 35.6093 115.668 36.5475 115.668 37.5782V43.3338C115.668 44.8063 116.961 46 118.556 46H128.818C130.414 46 131.707 44.8063 131.707 43.3338C131.707 41.8612 130.414 40.6675 128.818 40.6675Z" fill="#F4F4F4"/>
<path d="M88.9297 54H137.072V64.1344H128.535V61.3415H107.216L121.006 75.5L107.216 89.6585H128.535V86.8656H137.072V97H88.9297L109.87 75.5L88.9297 54Z" fill="#F4F4F4"/>
</svg>
