<svg width="150" height="100" viewBox="0 0 150 100" fill="none" xmlns="http://www.w3.org/2000/svg">
<path d="M25.6796 23.4V57H14.3516V31.944H8.59156V23.4H25.6796ZM45.0221 57.768C42.0461 57.768 39.4061 57.08 37.1021 55.704C34.8301 54.296 33.0381 52.28 31.7261 49.656C30.4461 47 29.8061 43.848 29.8061 40.2C29.8061 36.552 30.4461 33.416 31.7261 30.792C33.0381 28.136 34.8301 26.12 37.1021 24.744C39.4061 23.336 42.0461 22.632 45.0221 22.632C47.9981 22.632 50.6221 23.336 52.8941 24.744C55.1981 26.12 56.9901 28.136 58.2701 30.792C59.5821 33.416 60.2381 36.552 60.2381 40.2C60.2381 43.848 59.5821 47 58.2701 49.656C56.9901 52.28 55.1981 54.296 52.8941 55.704C50.6221 57.08 47.9981 57.768 45.0221 57.768ZM45.0221 48.696C47.5821 48.696 48.8621 45.864 48.8621 40.2C48.8621 34.536 47.5821 31.704 45.0221 31.704C42.4621 31.704 41.1821 34.536 41.1821 40.2C41.1821 45.864 42.4621 48.696 45.0221 48.696Z" fill="#F7F7F7"/>
<path d="M65.4641 17.608V22H52.0001V18.52L58.0721 12.904C58.6001 12.408 58.9521 11.984 59.1281 11.632C59.3041 11.28 59.3921 10.936 59.3921 10.6C59.3921 10.184 59.2481 9.864 58.9601 9.64C58.6881 9.4 58.2881 9.28 57.7601 9.28C57.2481 9.28 56.7681 9.416 56.3201 9.688C55.8721 9.96 55.5281 10.344 55.2881 10.84L51.0161 8.704C51.6561 7.504 52.5921 6.56 53.8241 5.872C55.0561 5.168 56.5441 4.816 58.2881 4.816C59.6161 4.816 60.7921 5.032 61.8161 5.464C62.8401 5.896 63.6401 6.512 64.2161 7.312C64.7921 8.112 65.0801 9.032 65.0801 10.072C65.0801 11 64.8801 11.872 64.4801 12.688C64.0961 13.488 63.3361 14.4 62.2001 15.424L59.8001 17.608H65.4641ZM76.0577 11.848C77.3537 12.168 78.3457 12.752 79.0337 13.6C79.7377 14.432 80.0897 15.44 80.0897 16.624C80.0897 17.632 79.8097 18.576 79.2497 19.456C78.7057 20.32 77.8577 21.024 76.7057 21.568C75.5537 22.112 74.1217 22.384 72.4097 22.384C71.2257 22.384 70.0417 22.256 68.8577 22C67.6897 21.744 66.6657 21.368 65.7857 20.872L67.7057 16.696C68.3937 17.096 69.1297 17.4 69.9137 17.608C70.7137 17.816 71.4817 17.92 72.2177 17.92C72.8737 17.92 73.4017 17.808 73.8017 17.584C74.2017 17.36 74.4017 17.04 74.4017 16.624C74.4017 15.856 73.7377 15.472 72.4097 15.472H70.1777V11.992L72.6497 9.472H66.6497V5.2H79.1777V8.68L76.0577 11.848Z" fill="#F7F7F7"/>
<path d="M91.5728 47.2V92H76.4688V58.592H68.7888V47.2H91.5728ZM117.363 93.024C113.395 93.024 109.875 92.1067 106.803 90.272C103.773 88.3947 101.384 85.7067 99.6348 82.208C97.9281 78.6667 97.0748 74.464 97.0748 69.6C97.0748 64.736 97.9281 60.5547 99.6348 57.056C101.384 53.5147 103.773 50.8267 106.803 48.992C109.875 47.1147 113.395 46.176 117.363 46.176C121.331 46.176 124.829 47.1147 127.859 48.992C130.931 50.8267 133.32 53.5147 135.027 57.056C136.776 60.5547 137.651 64.736 137.651 69.6C137.651 74.464 136.776 78.6667 135.027 82.208C133.32 85.7067 130.931 88.3947 127.859 90.272C124.829 92.1067 121.331 93.024 117.363 93.024ZM117.363 80.928C120.776 80.928 122.483 77.152 122.483 69.6C122.483 62.048 120.776 58.272 117.363 58.272C113.949 58.272 112.243 62.048 112.243 69.6C112.243 77.152 113.949 80.928 117.363 80.928Z" fill="#F7F7F7"/>
<path d="M126.84 23.2V40H121.176V27.472H118.296V23.2H126.84ZM136.511 40.384C135.023 40.384 133.703 40.04 132.551 39.352C131.415 38.648 130.519 37.64 129.863 36.328C129.223 35 128.903 33.424 128.903 31.6C128.903 29.776 129.223 28.208 129.863 26.896C130.519 25.568 131.415 24.56 132.551 23.872C133.703 23.168 135.023 22.816 136.511 22.816C137.999 22.816 139.311 23.168 140.447 23.872C141.599 24.56 142.495 25.568 143.135 26.896C143.791 28.208 144.119 29.776 144.119 31.6C144.119 33.424 143.791 35 143.135 36.328C142.495 37.64 141.599 38.648 140.447 39.352C139.311 40.04 137.999 40.384 136.511 40.384ZM136.511 35.848C137.791 35.848 138.431 34.432 138.431 31.6C138.431 28.768 137.791 27.352 136.511 27.352C135.231 27.352 134.591 28.768 134.591 31.6C134.591 34.432 135.231 35.848 136.511 35.848Z" fill="#F7F7F7"/>
</svg>
