<svg width="80" height="51" viewBox="0 0 80 51" fill="none" xmlns="http://www.w3.org/2000/svg">
<path d="M55.6265 0.270264H44.6862L25.9355 9.64526H36.8757L55.6265 0.270264Z" fill="white"/>
<path d="M74.5321 0.270264H63.4362L44.6855 9.64526H55.6257L74.5321 0.270264Z" fill="white"/>
<path d="M63.4355 9.64535H79.9994V1.83285C79.9994 1.71233 79.9353 1.60587 79.8967 1.49316L63.4355 9.64535Z" fill="white"/>
<path d="M7.0293 9.64526H18.1257L36.8765 0.270264H25.9362L7.0293 9.64526Z" fill="white"/>
<path d="M0 48.7078C0 49.5714 1.04828 50.2703 2.34374 50.2703H77.6559C78.9514 50.2703 79.9997 49.5714 79.9997 48.7078V12.7703H0V48.7078ZM28.2811 20.5828C28.2811 20.0197 28.7343 19.5009 29.4691 19.2232C30.2039 18.9455 31.1057 18.9531 31.8311 19.243L55.2685 28.618C55.9735 28.9003 56.406 29.4084 56.406 29.9577C56.406 30.5069 55.9734 31.0151 55.2685 31.2973L31.8311 40.6723C31.1052 40.9621 30.2032 40.9696 29.4691 40.6921C28.7343 40.4146 28.2811 39.8958 28.2811 39.3328V20.5828Z" fill="white"/>
<path d="M2.34374 0.270264C1.04828 0.270264 0 0.969118 0 1.83276V9.25537L18.1274 0.270264H2.34374Z" fill="white"/>
<path d="M32.9688 23.3433V36.5726L49.5077 29.958L32.9688 23.3433Z" fill="white"/>
</svg>
