<svg width="150" height="100" viewBox="0 0 150 100" fill="none" xmlns="http://www.w3.org/2000/svg">
<g clip-path="url(#clip0)">
<path d="M43.1364 102H16.5909C14.7568 102 13.2727 100.69 13.2727 99.0703C13.2727 82.5135 26.8695 62.1287 37.793 45.7494C42.997 37.9475 47.9712 30.4916 49.7502 25.8281H29.8636C27.1903 25.8281 24.7114 26.7408 22.8837 28.3973C20.9428 30.0682 19.9091 32.2568 19.9091 34.6172C19.9091 36.2365 18.425 37.5469 16.5909 37.5469H3.31818C1.48411 37.5469 0 36.2365 0 34.6172V4.92969C0 3.31035 1.48411 2 3.31818 2H16.5909C18.425 2 19.9091 3.31035 19.9091 4.92969V5.11855C23.1852 3.52207 27.738 2 33.1818 2C41.5193 2 48.5996 4.12578 53.0909 5.91953V4.92969C53.0909 3.31035 54.575 2 56.4091 2H69.6818C71.5159 2 73 3.31035 73 4.92969V22.8984C73 23.3563 72.8768 23.8082 72.6436 24.2203C72.381 24.6779 46.4545 70.3514 46.4545 99.0703C46.4545 100.69 44.9704 102 43.1364 102Z" fill="#F3F3F3"/>
<path d="M97.8429 64.576C95.6109 64.576 93.6309 64.06 91.9029 63.028C90.1989 61.972 88.8549 60.46 87.8709 58.492C86.9109 56.5 86.4309 54.136 86.4309 51.4C86.4309 48.664 86.9109 46.312 87.8709 44.344C88.8549 42.352 90.1989 40.84 91.9029 39.808C93.6309 38.752 95.6109 38.224 97.8429 38.224C100.075 38.224 102.043 38.752 103.747 39.808C105.475 40.84 106.819 42.352 107.779 44.344C108.763 46.312 109.255 48.664 109.255 51.4C109.255 54.136 108.763 56.5 107.779 58.492C106.819 60.46 105.475 61.972 103.747 63.028C102.043 64.06 100.075 64.576 97.8429 64.576ZM97.8429 57.772C99.7629 57.772 100.723 55.648 100.723 51.4C100.723 47.152 99.7629 45.028 97.8429 45.028C95.9229 45.028 94.9629 47.152 94.9629 51.4C94.9629 55.648 95.9229 57.772 97.8429 57.772Z" fill="#F4F4F4"/>
<path d="M134.141 64.576C131.909 64.576 129.929 64.06 128.201 63.028C126.497 61.972 125.153 60.46 124.169 58.492C123.209 56.5 122.729 54.136 122.729 51.4C122.729 48.664 123.209 46.312 124.169 44.344C125.153 42.352 126.497 40.84 128.201 39.808C129.929 38.752 131.909 38.224 134.141 38.224C136.373 38.224 138.341 38.752 140.045 39.808C141.773 40.84 143.117 42.352 144.077 44.344C145.061 46.312 145.553 48.664 145.553 51.4C145.553 54.136 145.061 56.5 144.077 58.492C143.117 60.46 141.773 61.972 140.045 63.028C138.341 64.06 136.373 64.576 134.141 64.576ZM134.141 57.772C136.061 57.772 137.021 55.648 137.021 51.4C137.021 47.152 136.061 45.028 134.141 45.028C132.221 45.028 131.261 47.152 131.261 51.4C131.261 55.648 132.221 57.772 134.141 57.772Z" fill="#F4F4F4"/>
<path d="M134.141 95.576C131.909 95.576 129.929 95.06 128.201 94.028C126.497 92.972 125.153 91.46 124.169 89.492C123.209 87.5 122.729 85.136 122.729 82.4C122.729 79.664 123.209 77.312 124.169 75.344C125.153 73.352 126.497 71.84 128.201 70.808C129.929 69.752 131.909 69.224 134.141 69.224C136.373 69.224 138.341 69.752 140.045 70.808C141.773 71.84 143.117 73.352 144.077 75.344C145.061 77.312 145.553 79.664 145.553 82.4C145.553 85.136 145.061 87.5 144.077 89.492C143.117 91.46 141.773 92.972 140.045 94.028C138.341 95.06 136.373 95.576 134.141 95.576ZM134.141 88.772C136.061 88.772 137.021 86.648 137.021 82.4C137.021 78.152 136.061 76.028 134.141 76.028C132.221 76.028 131.261 78.152 131.261 82.4C131.261 86.648 132.221 88.772 134.141 88.772Z" fill="#F4F4F4"/>
<path d="M134.141 33.576C131.909 33.576 129.929 33.06 128.201 32.028C126.497 30.972 125.153 29.46 124.169 27.492C123.209 25.5 122.729 23.136 122.729 20.4C122.729 17.664 123.209 15.312 124.169 13.344C125.153 11.352 126.497 9.84 128.201 8.808C129.929 7.752 131.909 7.224 134.141 7.224C136.373 7.224 138.341 7.752 140.045 8.808C141.773 9.84 143.117 11.352 144.077 13.344C145.061 15.312 145.553 17.664 145.553 20.4C145.553 23.136 145.061 25.5 144.077 27.492C143.117 29.46 141.773 30.972 140.045 32.028C138.341 33.06 136.373 33.576 134.141 33.576ZM134.141 26.772C136.061 26.772 137.021 24.648 137.021 20.4C137.021 16.152 136.061 14.028 134.141 14.028C132.221 14.028 131.261 16.152 131.261 20.4C131.261 24.648 132.221 26.772 134.141 26.772Z" fill="#F4F4F4"/>
<path d="M98.8429 33.576C96.6109 33.576 94.6309 33.06 92.9029 32.028C91.1989 30.972 89.8549 29.46 88.8709 27.492C87.9109 25.5 87.4309 23.136 87.4309 20.4C87.4309 17.664 87.9109 15.312 88.8709 13.344C89.8549 11.352 91.1989 9.84 92.9029 8.808C94.6309 7.752 96.6109 7.224 98.8429 7.224C101.075 7.224 103.043 7.752 104.747 8.808C106.475 9.84 107.819 11.352 108.779 13.344C109.763 15.312 110.255 17.664 110.255 20.4C110.255 23.136 109.763 25.5 108.779 27.492C107.819 29.46 106.475 30.972 104.747 32.028C103.043 33.06 101.075 33.576 98.8429 33.576ZM98.8429 26.772C100.763 26.772 101.723 24.648 101.723 20.4C101.723 16.152 100.763 14.028 98.8429 14.028C96.9229 14.028 95.9629 16.152 95.9629 20.4C95.9629 24.648 96.9229 26.772 98.8429 26.772Z" fill="#F4F4F4"/>
<path d="M97.8429 95.576C95.6109 95.576 93.6309 95.06 91.9029 94.028C90.1989 92.972 88.8549 91.46 87.8709 89.492C86.9109 87.5 86.4309 85.136 86.4309 82.4C86.4309 79.664 86.9109 77.312 87.8709 75.344C88.8549 73.352 90.1989 71.84 91.9029 70.808C93.6309 69.752 95.6109 69.224 97.8429 69.224C100.075 69.224 102.043 69.752 103.747 70.808C105.475 71.84 106.819 73.352 107.779 75.344C108.763 77.312 109.255 79.664 109.255 82.4C109.255 85.136 108.763 87.5 107.779 89.492C106.819 91.46 105.475 92.972 103.747 94.028C102.043 95.06 100.075 95.576 97.8429 95.576ZM97.8429 88.772C99.7629 88.772 100.723 86.648 100.723 82.4C100.723 78.152 99.7629 76.028 97.8429 76.028C95.9229 76.028 94.9629 78.152 94.9629 82.4C94.9629 86.648 95.9229 88.772 97.8429 88.772Z" fill="#F4F4F4"/>
</g>
<defs>
<clipPath id="clip0">
<rect width="150" height="100" fill="white"/>
</clipPath>
</defs>
</svg>
