<svg width="150" height="101" viewBox="0 0 150 101" fill="none" xmlns="http://www.w3.org/2000/svg">
<path d="M54.0138 19.696C56.6058 20.336 58.5898 21.504 59.9658 23.2C61.3738 24.864 62.0778 26.88 62.0778 29.248C62.0778 31.264 61.5178 33.152 60.3978 34.912C59.3098 36.64 57.6138 38.048 55.3098 39.136C53.0058 40.224 50.1418 40.768 46.7178 40.768C44.3498 40.768 41.9818 40.512 39.6138 40C37.2778 39.488 35.2298 38.736 33.4698 37.744L37.3098 29.392C38.6858 30.192 40.1578 30.8 41.7258 31.216C43.3258 31.632 44.8618 31.84 46.3338 31.84C47.6458 31.84 48.7018 31.616 49.5018 31.168C50.3018 30.72 50.7018 30.08 50.7018 29.248C50.7018 27.712 49.3738 26.944 46.7178 26.944H42.2538V19.984L47.1978 14.944H35.1978V6.4H60.2538V13.36L54.0138 19.696Z" fill="#F0F0F0"/>
<path d="M65.8981 89.24H61.4341V95H50.4421V89.24H33.0181V82.04L47.2741 61.4H58.8901L46.2181 80.456H50.7781V75.32H61.4341V80.456H65.8981V89.24Z" fill="#F7F7F7"/>
<path d="M17 50H134" stroke="#F3F3F3" stroke-width="3"/>
<path d="M104.136 15.608V20H90.672V16.52L96.744 10.904C97.272 10.408 97.624 9.984 97.8 9.632C97.976 9.28 98.064 8.936 98.064 8.6C98.064 8.184 97.92 7.864 97.632 7.64C97.36 7.4 96.96 7.28 96.432 7.28C95.92 7.28 95.44 7.416 94.992 7.688C94.544 7.96 94.2 8.344 93.96 8.84L89.688 6.704C90.328 5.504 91.264 4.56 92.496 3.872C93.728 3.168 95.216 2.816 96.96 2.816C98.288 2.816 99.464 3.032 100.488 3.464C101.512 3.896 102.312 4.512 102.888 5.312C103.464 6.112 103.752 7.032 103.752 8.072C103.752 9 103.552 9.872 103.152 10.688C102.768 11.488 102.008 12.4 100.872 13.424L98.472 15.608H104.136Z" fill="#F0F0F0"/>
<path d="M103.992 43.12H101.76V46H96.264V43.12H87.552V39.52L94.68 29.2H100.488L94.152 38.728H96.432V36.16H101.76V38.728H103.992V43.12Z" fill="#F7F7F7"/>
<path d="M81 26L115 26" stroke="#F0F0F0" stroke-width="2"/>
<path d="M100.664 55.2V72H95V59.472H92.12V55.2H100.664Z" fill="#F0F0F0"/>
<path d="M95.2024 95.608V100H81.7384V96.52L87.8104 90.904C88.3384 90.408 88.6904 89.984 88.8664 89.632C89.0424 89.28 89.1304 88.936 89.1304 88.6C89.1304 88.184 88.9864 87.864 88.6984 87.64C88.4264 87.4 88.0264 87.28 87.4984 87.28C86.9864 87.28 86.5064 87.416 86.0584 87.688C85.6104 87.96 85.2664 88.344 85.0264 88.84L80.7544 86.704C81.3944 85.504 82.3304 84.56 83.5624 83.872C84.7944 83.168 86.2824 82.816 88.0264 82.816C89.3544 82.816 90.5304 83.032 91.5544 83.464C92.5784 83.896 93.3784 84.512 93.9544 85.312C94.5304 86.112 94.8184 87.032 94.8184 88.072C94.8184 89 94.6184 89.872 94.2184 90.688C93.8344 91.488 93.0744 92.4 91.9384 93.424L89.5384 95.608H95.2024ZM109.084 91.144C109.804 91.592 110.356 92.144 110.74 92.8C111.14 93.44 111.34 94.176 111.34 95.008C111.34 96.08 111.02 97.024 110.38 97.84C109.756 98.656 108.868 99.288 107.716 99.736C106.58 100.168 105.276 100.384 103.804 100.384C102.332 100.384 101.02 100.168 99.868 99.736C98.732 99.288 97.844 98.656 97.204 97.84C96.58 97.024 96.268 96.08 96.268 95.008C96.268 94.176 96.46 93.44 96.844 92.8C97.244 92.144 97.804 91.592 98.524 91.144C97.42 90.264 96.868 89.16 96.868 87.832C96.868 86.824 97.156 85.944 97.732 85.192C98.324 84.44 99.14 83.856 100.18 83.44C101.236 83.024 102.444 82.816 103.804 82.816C105.164 82.816 106.364 83.024 107.404 83.44C108.46 83.856 109.276 84.44 109.852 85.192C110.444 85.944 110.74 86.824 110.74 87.832C110.74 89.16 110.188 90.264 109.084 91.144ZM103.804 86.632C103.404 86.632 103.076 86.76 102.82 87.016C102.58 87.272 102.46 87.624 102.46 88.072C102.46 88.52 102.58 88.872 102.82 89.128C103.076 89.384 103.404 89.512 103.804 89.512C104.204 89.512 104.524 89.384 104.764 89.128C105.02 88.872 105.148 88.52 105.148 88.072C105.148 87.624 105.02 87.272 104.764 87.016C104.524 86.76 104.204 86.632 103.804 86.632ZM103.804 96.568C104.348 96.568 104.788 96.408 105.124 96.088C105.476 95.768 105.652 95.344 105.652 94.816C105.652 94.288 105.476 93.864 105.124 93.544C104.788 93.224 104.348 93.064 103.804 93.064C103.26 93.064 102.812 93.224 102.46 93.544C102.124 93.864 101.956 94.288 101.956 94.816C101.956 95.344 102.124 95.768 102.46 96.088C102.812 96.408 103.26 96.568 103.804 96.568Z" fill="#F7F7F7"/>
<path d="M82 76H112" stroke="#F0F0F0" stroke-width="2"/>
</svg>
