<svg width="150" height="100" viewBox="0 0 150 100" fill="none" xmlns="http://www.w3.org/2000/svg">
<path d="M41.125 77L33.381 65.032L25.829 77H8.613L24.805 54.408L9.189 32.2H26.149L33.765 43.464L41.189 32.2H57.445L41.893 53.832L58.405 77H41.125Z" fill="#F3F3F3"/>
<path d="M73.3352 24.608V29H59.8712V25.52L65.9432 19.904C66.4712 19.408 66.8232 18.984 66.9992 18.632C67.1752 18.28 67.2632 17.936 67.2632 17.6C67.2632 17.184 67.1192 16.864 66.8312 16.64C66.5592 16.4 66.1592 16.28 65.6312 16.28C65.1192 16.28 64.6392 16.416 64.1912 16.688C63.7432 16.96 63.3992 17.344 63.1592 17.84L58.8872 15.704C59.5272 14.504 60.4632 13.56 61.6952 12.872C62.9272 12.168 64.4152 11.816 66.1592 11.816C67.4872 11.816 68.6632 12.032 69.6872 12.464C70.7112 12.896 71.5112 13.512 72.0872 14.312C72.6632 15.112 72.9512 16.032 72.9512 17.072C72.9512 18 72.7512 18.872 72.3512 19.688C71.9672 20.488 71.2072 21.4 70.0712 22.424L67.6712 24.608H73.3352Z" fill="#F3F3F3"/>
<path d="M59 56.5H73.5L85 78L95.5 39H141.5" stroke="#F0F0F0" stroke-width="5"/>
<path d="M134.687 48.744L123.887 75.528C122.511 78.952 120.799 81.352 118.751 82.728C116.703 84.104 114.191 84.792 111.215 84.792C109.743 84.792 108.255 84.568 106.751 84.12C105.279 83.704 104.111 83.144 103.247 82.44L106.847 75C107.391 75.416 107.999 75.752 108.671 76.008C109.375 76.264 110.047 76.392 110.687 76.392C111.871 76.392 112.767 76.04 113.375 75.336L102.335 48.744H113.471L118.895 62.808L124.415 48.744H134.687Z" fill="#F3F3F3"/>
</svg>
